<svg xmlns="http://www.w3.org/2000/svg" viewBox="0 0 512 512" xml:space="preserve"><circle style="fill:#71e2ef" cx="256" cy="256" r="256"/><path style="fill:#38c6d9" d="M151.974 361.406 298.96 508.392c113.21-19.132 201.147-112.566 211.913-228.407l-111.23-111.232-60.573 57.785-6.066-13.205-183.024 76.066 60.147 60.147-3.138 2.993z"/><path style="fill:#273b7a" d="m399.643 266.845-53.135-24.522v-49.047l53.135-24.523z"/><path style="fill:#121149" d="M346.508 213.764v28.559l53.135 24.522v-53.081z"/><path style="fill:#366695" d="M233.501 361.406h-73.292a7.759 7.759 0 0 1 0-15.516h73.294c7.27 0 13.183-5.915 13.183-13.183v-54.446a7.759 7.759 0 0 1 15.516 0v54.446c-.001 15.825-12.875 28.699-28.701 28.699"/><path style="fill:#4f81aa" d="M334.3 293.376H161.759c-10.79 0-19.539-8.747-19.539-19.537V161.761c0-10.79 8.747-19.539 19.539-19.539H334.3c10.79 0 19.537 8.747 19.537 19.539v112.078c.002 10.79-8.747 19.537-19.537 19.537"/><path style="fill:#366695" d="M142.222 213.764v60.075c0 10.79 8.747 19.537 19.537 19.537H334.3c10.79 0 19.537-8.747 19.537-19.537v-60.075z"/><path style="fill:#273b7a" d="M142.222 257.719v16.12c0 10.79 8.747 19.537 19.537 19.537H334.3c10.79 0 19.537-8.747 19.537-19.537v-16.12z"/><circle style="fill:#ffad9e" cx="177.648" cy="169.391" r="7.018"/><circle style="fill:#ffad9e" cx="199.973" cy="169.391" r="7.018"/><circle style="fill:#273b7a" cx="170.667" cy="352.539" r="20.687"/><circle style="fill:#273b7a" cx="248.242" cy="352.539" r="20.687"/></svg>