<?xml version="1.0" encoding="iso-8859-1"?>
<!-- Generator: Adobe Illustrator 19.0.0, SVG Export Plug-In . SVG Version: 6.00 Build 0)  -->
<!-- License: CC0. Made by SVG Repo: https://www.svgrepo.com/svg/137767/cctv -->
<svg version="1.1" id="Layer_1" xmlns="http://www.w3.org/2000/svg" xmlns:xlink="http://www.w3.org/1999/xlink" x="0px" y="0px"
	 viewBox="0 0 512 512" style="enable-background:new 0 0 512 512;" xml:space="preserve">
<circle style="fill:#71E2EF;" cx="256" cy="256" r="256"/>
<path style="fill:#38C6D9;" d="M151.974,361.406L298.96,508.392C412.17,489.26,500.107,395.826,510.873,279.985l-111.23-111.232
	l-60.573,57.785l-6.066-13.205L149.98,289.399l60.147,60.147l-3.138,2.993L151.974,361.406z"/>
<polygon style="fill:#273B7A;" points="399.643,266.845 346.508,242.323 346.508,193.276 399.643,168.753 "/>
<polygon style="fill:#121149;" points="346.508,213.764 346.508,242.323 399.643,266.845 399.643,213.764 "/>
<path style="fill:#366695;" d="M233.501,361.406h-73.292c-4.284,0-7.758-3.474-7.758-7.758s3.474-7.758,7.758-7.758h73.294
	c7.27,0,13.183-5.915,13.183-13.183v-54.446c0-4.284,3.474-7.758,7.758-7.758c4.284,0,7.758,3.474,7.758,7.758v54.446
	C262.201,348.532,249.327,361.406,233.501,361.406z"/>
<path style="fill:#4F81AA;" d="M334.3,293.376H161.759c-10.79,0-19.539-8.747-19.539-19.537V161.761
	c0-10.79,8.747-19.539,19.539-19.539H334.3c10.79,0,19.537,8.747,19.537,19.539v112.078
	C353.839,284.629,345.09,293.376,334.3,293.376z"/>
<path style="fill:#366695;" d="M142.222,213.764v60.075c0,10.79,8.747,19.537,19.537,19.537H334.3
	c10.79,0,19.537-8.747,19.537-19.537v-60.075H142.222z"/>
<path style="fill:#273B7A;" d="M142.222,257.719v16.12c0,10.79,8.747,19.537,19.537,19.537H334.3
	c10.79,0,19.537-8.747,19.537-19.537v-16.12H142.222z"/>
<g>
	<circle style="fill:#FFAD9E;" cx="177.648" cy="169.391" r="7.018"/>
	<circle style="fill:#FFAD9E;" cx="199.973" cy="169.391" r="7.018"/>
</g>
<g>
	<circle style="fill:#273B7A;" cx="170.667" cy="352.539" r="20.687"/>
	<circle style="fill:#273B7A;" cx="248.242" cy="352.539" r="20.687"/>
</g>
</svg>
