<?xml version="1.0" encoding="UTF-8"?>
<svg xmlns="http://www.w3.org/2000/svg" xmlns:xlink="http://www.w3.org/1999/xlink" width="80px" height="80px" viewBox="0 0 80 80" version="1.1">
<g id="surface1">
<path style=" stroke:none;fill-rule:nonzero;fill:rgb(0%,0%,0%);fill-opacity:1;" d="M 80 66.667969 L 80 58.328125 L 0 58.328125 L 0 66.667969 L 25 66.667969 L 25 76.667969 L 18.332031 76.667969 L 18.332031 80 L 61.667969 80 L 61.667969 76.667969 L 55 76.667969 L 55 66.667969 Z M 80 66.667969 "/>
<path style=" stroke:none;fill-rule:nonzero;fill:rgb(0%,0%,0%);fill-opacity:1;" d="M 40 0 C 31.261719 0 23.609375 4.6875 19.375 11.667969 L 23.382812 11.667969 C 27.179688 6.613281 33.207031 3.332031 40 3.332031 C 46.792969 3.332031 52.820312 6.613281 56.617188 11.667969 L 60.625 11.667969 C 56.390625 4.6875 48.738281 0 40 0 Z M 40 0 "/>
<path style=" stroke:none;fill-rule:nonzero;fill:rgb(0%,0%,0%);fill-opacity:1;" d="M 60.625 11.667969 C 62.835938 15.308594 64.132812 19.566406 64.132812 24.132812 L 64.132812 24.800781 C 66.648438 26.433594 68.332031 29.265625 68.332031 32.5 C 68.332031 35.332031 67.035156 37.882812 65 39.566406 L 65 48.332031 L 49.699219 48.332031 C 49.015625 50.265625 47.167969 51.667969 45 51.667969 L 40 51.667969 C 37.25 51.667969 35 49.417969 35 46.667969 C 35 43.898438 37.25 41.667969 40 41.667969 L 45 41.667969 C 47.167969 41.667969 49.015625 43.050781 49.699219 45 L 61.667969 45 L 61.667969 41.316406 C 60.867188 41.550781 60.035156 41.667969 59.167969 41.667969 L 56.667969 41.667969 L 56.667969 23.332031 L 59.167969 23.332031 C 59.714844 23.332031 60.265625 23.382812 60.785156 23.484375 C 60.652344 19.050781 59.109375 14.980469 56.617188 11.667969 L 23.382812 11.667969 C 20.890625 14.980469 19.347656 19.050781 19.214844 23.484375 C 19.734375 23.382812 20.285156 23.332031 20.832031 23.332031 L 23.332031 23.332031 L 23.332031 41.667969 L 20.832031 41.667969 C 15.785156 41.667969 11.667969 37.550781 11.667969 32.5 C 11.667969 29.265625 13.351562 26.433594 15.867188 24.800781 L 15.867188 24.132812 C 15.867188 19.566406 17.164062 15.308594 19.375 11.667969 L 0 11.667969 L 0 54.996094 L 80 54.996094 L 80 11.667969 Z M 60.625 11.667969 "/>
</g>
</svg>
