<?xml version="1.0" encoding="UTF-8"?>
<svg xmlns="http://www.w3.org/2000/svg" xmlns:xlink="http://www.w3.org/1999/xlink" width="80px" height="80px" viewBox="0 0 80 80" version="1.1">
<g id="surface1">
<path style=" stroke:none;fill-rule:nonzero;fill:rgb(0%,0%,0%);fill-opacity:1;" d="M 70.566406 25.945312 L 64.988281 25.945312 C 64.824219 26.003906 64.648438 26.039062 64.464844 26.039062 L 48.082031 26.039062 C 45.152344 26.039062 42.765625 28.421875 42.765625 31.351562 L 42.765625 48.679688 C 42.765625 53.273438 39.027344 57.011719 34.433594 57.011719 L 19.304688 57.011719 C 24.375 63.179688 31.917969 66.792969 40 66.792969 C 49.03125 66.792969 57.394531 62.285156 62.378906 54.734375 C 62.65625 54.3125 63.128906 54.054688 63.636719 54.054688 L 70.566406 54.054688 C 75.769531 54.054688 80 49.824219 80 44.621094 L 80 35.378906 C 80 30.175781 75.769531 25.945312 70.566406 25.945312 Z M 59.527344 39.433594 C 60.363281 39.433594 61.039062 40.109375 61.039062 40.945312 C 61.039062 41.777344 60.363281 42.453125 59.527344 42.453125 L 53.492188 42.453125 L 53.492188 47.925781 C 53.492188 48.757812 52.816406 49.433594 51.980469 49.433594 C 51.148438 49.433594 50.472656 48.757812 50.472656 47.925781 L 50.472656 34.339844 C 50.472656 34.019531 50.570312 33.726562 50.738281 33.480469 C 50.941406 32.886719 51.503906 32.453125 52.167969 32.453125 L 59.527344 32.453125 C 60.363281 32.453125 61.039062 33.128906 61.039062 33.960938 C 61.039062 34.796875 60.363281 35.472656 59.527344 35.472656 L 53.492188 35.472656 L 53.492188 39.433594 Z M 68.019531 48.113281 C 68.019531 48.945312 67.34375 49.621094 66.507812 49.621094 C 65.675781 49.621094 65 48.945312 65 48.113281 L 65 39.054688 C 65 38.222656 65.675781 37.546875 66.507812 37.546875 C 67.34375 37.546875 68.019531 38.222656 68.019531 39.054688 Z M 68.019531 34.71875 C 68.019531 35.550781 67.34375 36.226562 66.507812 36.226562 C 65.675781 36.226562 65 35.550781 65 34.71875 L 65 34.339844 C 65 33.503906 65.675781 32.832031 66.507812 32.832031 C 67.34375 32.832031 68.019531 33.503906 68.019531 34.339844 Z M 68.019531 34.71875 "/>
<path style=" stroke:none;fill-rule:nonzero;fill:rgb(0%,0%,0%);fill-opacity:1;" d="M 39.746094 48.679688 L 39.746094 31.351562 C 39.746094 26.757812 43.488281 23.019531 48.082031 23.019531 L 60.722656 23.019531 C 55.652344 16.832031 48.09375 13.207031 40 13.207031 C 30.96875 13.207031 22.605469 17.714844 17.621094 25.265625 C 17.339844 25.6875 16.867188 25.945312 16.363281 25.945312 L 9.433594 25.945312 C 4.230469 25.945312 0 30.175781 0 35.378906 L 0 44.621094 C 0 49.824219 4.230469 54.054688 9.433594 54.054688 L 14.382812 54.054688 C 14.515625 54.015625 14.664062 53.996094 14.8125 53.996094 L 34.433594 53.996094 C 37.363281 53.996094 39.746094 51.609375 39.746094 48.679688 Z M 25.527344 34.683594 L 22.320312 48.457031 L 22.316406 48.457031 C 22.191406 48.996094 21.769531 49.449219 21.191406 49.582031 C 21.074219 49.609375 20.960938 49.625 20.847656 49.625 C 20.160156 49.625 19.539062 49.152344 19.378906 48.457031 L 17.640625 40.996094 L 15.902344 48.457031 C 15.777344 48.996094 15.355469 49.449219 14.777344 49.582031 C 14.660156 49.609375 14.546875 49.625 14.433594 49.625 C 13.746094 49.625 13.125 49.152344 12.964844 48.457031 L 9.757812 34.683594 C 9.566406 33.871094 10.070312 33.058594 10.882812 32.871094 C 11.695312 32.679688 12.507812 33.183594 12.695312 33.996094 L 14.433594 41.457031 L 16.171875 33.996094 C 16.359375 33.1875 17.171875 32.679688 17.984375 32.871094 C 18.5625 33.003906 18.984375 33.457031 19.109375 33.996094 L 20.847656 41.457031 L 22.585938 33.996094 C 22.773438 33.183594 23.585938 32.679688 24.398438 32.871094 C 25.210938 33.058594 25.714844 33.871094 25.527344 34.683594 Z M 32.167969 48.113281 C 32.167969 48.945312 31.492188 49.621094 30.660156 49.621094 C 29.828125 49.621094 29.152344 48.945312 29.152344 48.113281 L 29.152344 39.058594 C 29.152344 38.222656 29.828125 37.546875 30.660156 37.546875 C 31.492188 37.546875 32.167969 38.222656 32.167969 39.058594 Z M 32.167969 34.71875 C 32.167969 35.550781 31.492188 36.226562 30.660156 36.226562 C 29.828125 36.226562 29.152344 35.550781 29.152344 34.71875 L 29.152344 34.339844 C 29.152344 33.507812 29.828125 32.832031 30.660156 32.832031 C 31.492188 32.832031 32.167969 33.507812 32.167969 34.339844 Z M 32.167969 34.71875 "/>
</g>
</svg>
